<?xml version="1.0" encoding="UTF-8"?>
<svg xmlns="http://www.w3.org/2000/svg" xmlns:xlink="http://www.w3.org/1999/xlink" width="223" height="244" viewBox="0 0 223 244">
  <rect width="100%" height="100%" fill="#fff"/>
  <path fill="transparent" stroke="#000" stroke-width="4" stroke-linecap="round" stroke-linejoin="round" data-start="" data-end="" data-left="" data-right="" data-top="" data-bottom="" data-left-top="" data-right-bottom="" data-time="1569642758957" d="M58.84614562988281,9.692291259765625 L58.84614562988281,9.692291259765625 58.84614562988281,9.692291259765625 58.84614562988281,9.692291259765625 58.84614562988281,9.692291259765625 58.84614562988281,16.999984741210938 59.23075866699219,24.30767822265625 59.61537170410156,32.38459777832031 59.99998474121094,40.84614562988281 60.76922607421875,50.076904296875 61.5384521484375,59.30767822265625 62.30767822265625,68.15383911132812 63.07691955566406,76.99996948242188 63.84614562988281,85.84613037109375 64.61537170410156,93.92306518554688 65.38459777832031,101.99996948242188 66.15383911132812,109.69229125976562 66.92306518554688,116.99996948242188 68.07691955566406,123.92306518554688 69.23075866699219,130.84613037109375 70.38459777832031,137.76919555664062 71.5384521484375,144.30767822265625 72.69229125976562,150.84613037109375 73.84614562988281,156.99996948242188 74.99998474121094,163.15380859375 76.15383911132812,168.92306518554688 77.30767822265625,174.30767822265625 78.46153259277344,179.30767822265625 79.61537170410156,184.30767822265625 80.38459777832031,188.92306518554688 81.15383911132812,193.5384521484375 82.30767822265625,197.76919555664062 83.46153259277344,201.99996948242188 84.23075866699219,205.84613037109375 84.99998474121094,208.92306518554688 85.76922607421875,211.99996948242188 86.5384521484375,214.69229125976562 87.30767822265625,216.99996948242188 87.69229125976562,218.53842163085938 88.076904296875,220.076904296875 88.076904296875,220.84613037109375 88.076904296875,221.6153564453125 87.69229125976562,221.99996948242188 "/>
  <path fill="transparent" stroke="#000" stroke-width="4" stroke-linecap="round" stroke-linejoin="round" data-start="" data-end="" data-left="" data-right="" data-top="" data-bottom="" data-left-top="" data-right-bottom="" data-time="1569642760148" d="M9.615379333496094,143.92306518554688 L9.615379333496094,143.92306518554688 9.615379333496094,143.92306518554688 9.615379333496094,143.92306518554688 9.999992370605469,137.38458251953125 11.923072814941406,129.30767822265625 14.999992370605469,121.23074340820312 18.846145629882812,113.5384521484375 23.461532592773438,106.6153564453125 29.230758666992188,100.076904296875 35.384613037109375,93.92306518554688 42.30767822265625,87.76922607421875 49.99998474121094,82.38458251953125 57.30767822265625,77.76922607421875 64.61537170410156,74.30767822265625 71.5384521484375,71.99996948242188 77.69229125976562,70.076904296875 83.84614562988281,69.30767822265625 88.84614562988281,69.30767822265625 93.076904296875,69.69229125976562 96.5384521484375,70.46151733398438 98.84614562988281,71.6153564453125 100.76921081542969,73.15383911132812 102.30767822265625,75.46151733398438 103.84614562988281,79.30767822265625 104.61537170410156,84.69229125976562 104.23075866699219,90.46151733398438 103.076904296875,96.6153564453125 101.5384521484375,103.5384521484375 99.23075866699219,110.46151733398438 96.5384521484375,116.99996948242188 93.46153259277344,123.5384521484375 90.38459777832031,130.076904296875 86.92306518554688,136.6153564453125 83.076904296875,142.76919555664062 79.23075866699219,148.92306518554688 75.76922607421875,155.46151733398438 71.92306518554688,161.6153564453125 68.07691955566406,168.15380859375 64.61537170410156,174.69229125976562 61.153839111328125,181.23074340820312 57.692291259765625,187.76919555664062 54.23075866699219,193.92306518554688 51.153839111328125,199.69229125976562 48.07691955566406,205.076904296875 45.384613037109375,209.69229125976562 43.07691955566406,214.30767822265625 41.153839111328125,218.15380859375 39.23075866699219,221.6153564453125 37.30767822265625,224.69229125976562 35.384613037109375,226.99996948242188 33.84614562988281,229.30767822265625 32.69230651855469,230.84613037109375 31.5384521484375,231.99996948242188 30.76922607421875,232.76919555664062 29.999984741210938,233.53842163085938 29.230758666992188,233.92306518554688 28.846145629882812,233.92306518554688 28.461532592773438,233.53842163085938 28.076919555664062,232.76919555664062 27.692306518554688,230.84613037109375 27.692306518554688,226.99996948242188 28.461532592773438,221.23074340820312 29.615371704101562,214.69229125976562 31.153839111328125,208.15380859375 33.46153259277344,201.6153564453125 36.5384521484375,194.69229125976562 39.99998474121094,187.38458251953125 44.61537170410156,179.30767822265625 49.99998474121094,170.46151733398438 56.153839111328125,160.84613037109375 63.07691955566406,150.84613037109375 70.38459777832031,140.46151733398438 77.69229125976562,130.84613037109375 84.61537170410156,121.23074340820312 90.76922607421875,113.15383911132812 96.92306518554688,105.84613037109375 103.076904296875,99.69229125976562 109.99998474121094,93.5384521484375 116.92306518554688,88.15383911132812 124.23075866699219,83.15383911132812 131.5384521484375,78.92306518554688 138.8461456298828,75.46151733398438 145.7692108154297,72.76922607421875 152.69229125976562,70.46151733398438 158.84613037109375,68.92306518554688 164.6153564453125,67.76922607421875 169.6153564453125,67.38461303710938 174.23074340820312,67.38461303710938 178.076904296875,67.76922607421875 181.92306518554688,68.5384521484375 185.38458251953125,69.69229125976562 188.46151733398438,71.23074340820312 191.92306518554688,73.15383911132812 194.99996948242188,75.84613037109375 198.076904296875,78.92306518554688 201.15383911132812,82.76922607421875 204.23074340820312,86.99996948242188 206.92306518554688,91.6153564453125 209.6153564453125,97.38458251953125 211.5384521484375,103.5384521484375 212.69229125976562,109.69229125976562 213.46151733398438,115.84613037109375 213.46151733398438,121.99996948242188 213.076904296875,128.5384521484375 212.30767822265625,135.076904296875 210.76922607421875,141.23074340820312 209.23074340820312,147.76919555664062 207.69229125976562,154.69229125976562 205.76922607421875,161.23074340820312 203.84613037109375,167.38458251953125 201.92306518554688,173.92306518554688 199.99996948242188,180.076904296875 198.076904296875,186.23074340820312 196.5384521484375,191.6153564453125 195.38458251953125,196.23074340820312 "/>
</svg>
